<svg width="114" height="96" viewBox="0 0 114 96" fill="none" xmlns="http://www.w3.org/2000/svg">
<path d="M31.4593 78.7727C33.7143 82.8757 39.6099 83.4821 39.658 89.4821C38.4395 89.04 37.6212 88.9003 36.9801 88.4862C29.9053 83.9181 22.8235 79.3587 15.8378 74.657C14.6934 73.8869 13.2694 72.4407 13.2661 71.3034C13.2599 69.2119 15.2991 68.9582 17.1121 68.8246C22.7451 68.4091 28.3729 67.9229 34.0405 67.461C33.7327 69.7086 30.4731 71.5448 24.2618 72.9693C39.9836 80.781 57.6968 73.2048 62.0247 56.6027C60.3529 56.2634 58.6808 55.978 57.0361 55.5801C52.1933 54.4085 48.1487 52.0235 45.2686 47.8309C43.1471 44.7426 42.5145 41.4707 44.3688 38.1383C46.2773 34.7084 49.5929 33.9441 53.2476 34.1882C61.165 34.7168 66.548 39.8895 67.4984 47.8389C67.6157 48.8197 67.8872 49.782 68.1577 51.0946C77.9478 48.8342 86.066 44.2532 91.7211 36.1951C100.44 23.7708 93.8986 12.39 85.2685 6.16671C84.2016 5.39732 82.9911 4.82728 81.1408 3.75585C84.431 3.07755 86.5295 4.21985 88.5549 5.33876C96.5528 9.75727 101.346 20.0022 99.6899 29.0173C98.6301 34.7867 95.9304 39.6982 91.6861 43.714C85.4423 49.6215 78.2212 53.7513 69.714 55.4496C68.8773 55.6166 68.0515 55.8372 66.9486 56.0971C64.4428 63.6154 61.0542 70.617 53.9756 75.1629C47.0638 79.6016 39.2962 78.7937 31.4593 78.7727ZM63.0949 51.726C64.1211 43.6105 59.8452 37.9636 52.8202 37.992C51.1635 37.9988 49.0375 38.8576 47.9719 40.068C46.4545 41.7919 47.4087 43.9042 48.7945 45.6341C52.3872 50.1194 57.1727 51.7313 63.0949 51.726Z" fill="#F7B129"/>
</svg>
