<svg xmlns="http://www.w3.org/2000/svg" width="40" height="40" fill="none"><path stroke="#7547F8" stroke-linecap="round" stroke-linejoin="round" stroke-width="2.5" d="M20.083 35.833a15.96 15.96 0 0 0 11.255-4.637A15.791 15.791 0 0 0 36 20c0-4.2-1.677-8.226-4.662-11.196a15.959 15.959 0 0 0-11.255-4.637A15.96 15.96 0 0 0 8.83 8.804 15.791 15.791 0 0 0 4.167 20c0 4.2 1.677 8.227 4.662 11.196a15.96 15.96 0 0 0 11.254 4.637z"/><path stroke="#7547F8" stroke-linecap="round" stroke-linejoin="round" stroke-width="2.5" d="M15.057 24.055a4.692 4.692 0 0 0 1.633 3.163 4.74 4.74 0 0 0 3.393 1.12c4.055 0 5.027-2.316 5.027-4.283 0-1.967-1.676-4.05-5.027-4.05-3.35 0-5.026-1.317-5.026-4a4.564 4.564 0 0 1 1.584-3.233 4.615 4.615 0 0 1 3.442-1.1 4.858 4.858 0 0 1 3.38 1.172 4.809 4.809 0 0 1 1.646 3.161m-5.026 14.828v-2.166m0-19.5v2.498"/></svg>