<svg xmlns="http://www.w3.org/2000/svg" width="40" height="40" fill="none"><path stroke="#7547F8" stroke-width="2.5" d="m30.3 13.4.772-.773a3.276 3.276 0 1 1 4.635 4.633l-.772.773M30.3 13.4s.097 1.64 1.545 3.088c1.448 1.449 3.09 1.545 3.09 1.545M30.3 13.4l-7.1 7.1c-.483.48-.723.722-.93.987a5.42 5.42 0 0 0-.623 1.01c-.145.303-.252.625-.467 1.27l-.688 2.066-.224.669m14.667-8.469-7.1 7.1c-.483.484-.723.724-.988.93-.314.245-.65.453-1.01.624-.304.145-.625.251-1.27.466l-2.067.689-.668.223m-1.564-1.563-.221.67a.883.883 0 0 0 1.116 1.116l.669-.223m-1.564-1.563 1.564 1.563"/><path stroke="#7547F8" stroke-linecap="round" stroke-width="2.5" d="M13.333 21.667H17.5M13.333 15h10.834M13.333 28.333h2.5M33.047 5.287c-1.952-1.954-5.095-1.954-11.38-1.954h-3.334c-6.285 0-9.428 0-11.38 1.954C5.002 7.24 5 10.382 5 16.667v6.666c0 6.285 0 9.429 1.953 11.38 1.954 1.952 5.095 1.954 11.38 1.954h3.334c6.285 0 9.428 0 11.38-1.954 1.573-1.571 1.878-3.913 1.938-8.046"/></svg>