<svg xmlns="http://www.w3.org/2000/svg" width="40" height="40"><path d="M 20.001 18.38 L 20.001 29.723 C 19.998 30.771 19.783 31.807 19.37 32.77 C 18.957 33.733 18.353 34.602 17.596 35.326 C 16.839 36.05 15.943 36.614 14.963 36.983 C 13.982 37.353 12.937 37.521 11.89 37.476 C 10.844 37.432 9.817 37.177 8.871 36.727 C 7.925 36.276 7.08 35.639 6.386 34.854 C 5.692 34.069 5.164 33.152 4.833 32.158 C 4.502 31.164 4.376 30.113 4.461 29.069 C 2.841 27.329 1.818 23.926 1.818 21.086 C 1.818 17.217 3.718 13.454 6.438 11.972 C 6.29 10.62 6.551 9.256 7.187 8.054 C 7.823 6.853 8.804 5.87 10.004 5.231 C 11.204 4.593 12.568 4.328 13.919 4.473 C 15.271 4.617 16.548 5.163 17.586 6.04" fill="transparent" stroke-width="2.8571429" stroke="rgb(117, 71, 248)" stroke-linecap="round" stroke-linejoin="round" stroke-dasharray=""></path><path d="M 10.032 16.597 C 9.032 16.369 6.772 14.883 6.432 11.991 M 6.543 24.989 C 5.526 25.791 4.715 27.609 4.455 29.066 M 20 29.723 C 20.003 30.771 20.218 31.807 20.631 32.77 C 21.044 33.733 21.648 34.602 22.405 35.326 C 23.162 36.05 24.058 36.614 25.038 36.983 C 26.019 37.353 27.064 37.52 28.11 37.476 C 29.157 37.432 30.184 37.177 31.13 36.727 C 32.076 36.276 32.921 35.639 33.615 34.854 C 34.309 34.069 34.837 33.152 35.168 32.158 C 35.499 31.164 35.625 30.113 35.54 29.069 C 37.16 27.329 38.18 23.926 38.18 21.086 C 38.18 19.846 37.986 18.617 37.632 17.469" fill="transparent" stroke-width="2.8571429" stroke="rgb(117, 71, 248)" stroke-linecap="round" stroke-linejoin="round" stroke-dasharray=""></path><path d="M 33.458 24.989 C 34.475 25.791 35.287 27.609 35.547 29.066 M 20.184 12.306 C 19.184 12.129 19.184 10.691 20.184 10.517 C 21.96 10.209 23.604 9.378 24.906 8.131 C 26.208 6.885 27.11 5.278 27.495 3.517 L 27.555 3.24 C 27.772 2.249 29.184 2.24 29.409 3.231 L 29.481 3.554 C 29.881 5.307 30.791 6.903 32.095 8.141 C 33.399 9.379 35.041 10.203 36.812 10.511 C 37.821 10.686 37.821 12.134 36.812 12.311 C 35.041 12.619 33.399 13.444 32.095 14.682 C 30.791 15.92 29.881 17.515 29.481 19.269 L 29.409 19.589 C 29.181 20.577 27.772 20.571 27.555 19.58 L 27.495 19.306 C 27.11 17.545 26.208 15.938 24.906 14.692 C 23.604 13.445 21.96 12.614 20.184 12.306 Z" fill="transparent" stroke-width="2.8571429" stroke="rgb(117, 71, 248)" stroke-linecap="round" stroke-linejoin="round" stroke-dasharray=""></path></svg>