<svg width="173" height="39" viewBox="0 0 173 39" fill="none" xmlns="http://www.w3.org/2000/svg">
<rect x="0.587851" y="0.673788" width="36.8386" height="36.8386" rx="18.4193" stroke="black" stroke-width="1.1757"/>
<circle cx="13.306" cy="13.7826" r="1.5482" fill="black"/>
<circle cx="19.2045" cy="13.7826" r="1.5482" fill="black"/>
<circle cx="25.1029" cy="13.7826" r="1.5482" fill="black"/>
<circle cx="13.306" cy="19.681" r="1.5482" fill="black"/>
<circle cx="19.2045" cy="19.681" r="1.5482" fill="black"/>
<circle cx="25.1029" cy="19.681" r="1.5482" fill="black"/>
<circle cx="13.306" cy="25.5795" r="1.5482" fill="black"/>
<path d="M49.6958 21.032V18.8016H52.2706C52.7904 18.8016 53.2256 18.6989 53.5762 18.4934C53.9389 18.2878 54.2109 18.0038 54.3922 17.6411C54.5856 17.2784 54.6823 16.8614 54.6823 16.3899C54.6823 15.9185 54.5856 15.5014 54.3922 15.1388C54.2109 14.7761 53.9389 14.4981 53.5762 14.3046C53.2256 14.0991 52.7904 13.9964 52.2706 13.9964H49.6958V11.766H52.053C53.1652 11.766 54.1081 11.9474 54.8818 12.31C55.6675 12.6727 56.2659 13.1925 56.6769 13.8694C57.088 14.5343 57.2935 15.3261 57.2935 16.2449V16.535C57.2935 17.4537 57.088 18.2516 56.6769 18.9285C56.2659 19.5934 55.6675 20.1132 54.8818 20.488C54.1081 20.8506 53.1652 21.032 52.053 21.032H49.6958ZM47.4835 25.0938V11.766H50.0584V25.0938H47.4835ZM59.0075 25.0938V15.2476H61.0021V19.4181H60.9477C60.9477 18.0038 61.25 16.9339 61.8544 16.2086C62.4588 15.4833 63.3473 15.1206 64.5199 15.1206H64.8826V17.3147H64.1935C63.3473 17.3147 62.6885 17.5444 62.2171 18.0038C61.7577 18.451 61.528 19.1038 61.528 19.9621V25.0938H59.0075ZM70.9481 25.4383C70.0778 25.4383 69.3101 25.2993 68.6453 25.0212C67.9804 24.7432 67.4183 24.3684 66.9589 23.897C66.4995 23.4134 66.149 22.8694 65.9072 22.265C65.6775 21.6606 65.5627 21.032 65.5627 20.3792V19.9984C65.5627 19.3214 65.6835 18.6807 65.9253 18.0763C66.1792 17.4598 66.5358 16.9158 66.9952 16.4443C67.4666 15.9608 68.0348 15.586 68.6997 15.3201C69.3645 15.042 70.114 14.903 70.9481 14.903C71.7823 14.903 72.5318 15.042 73.1966 15.3201C73.8615 15.586 74.4236 15.9608 74.883 16.4443C75.3545 16.9158 75.7111 17.4598 75.9528 18.0763C76.1946 18.6807 76.3155 19.3214 76.3155 19.9984V20.3792C76.3155 21.032 76.1946 21.6606 75.9528 22.265C75.7232 22.8694 75.3786 23.4134 74.9193 23.897C74.4599 24.3684 73.8978 24.7432 73.2329 25.0212C72.568 25.2993 71.8064 25.4383 70.9481 25.4383ZM70.9481 23.2805C71.5647 23.2805 72.0845 23.1475 72.5076 22.8815C72.9307 22.6035 73.251 22.2348 73.4686 21.7754C73.6862 21.304 73.795 20.7721 73.795 20.1797C73.795 19.5753 73.6802 19.0434 73.4505 18.584C73.2329 18.1126 72.9065 17.7439 72.4713 17.4779C72.0482 17.1999 71.5405 17.0608 70.9481 17.0608C70.3558 17.0608 69.842 17.1999 69.4068 17.4779C68.9837 17.7439 68.6573 18.1126 68.4277 18.584C68.198 19.0434 68.0831 19.5753 68.0831 20.1797C68.0831 20.7721 68.1919 21.304 68.4095 21.7754C68.6392 22.2348 68.9656 22.6035 69.3887 22.8815C69.8118 23.1475 70.3316 23.2805 70.9481 23.2805ZM76.8437 28.811V26.6532H77.6053C78.0526 26.6532 78.3971 26.5323 78.6389 26.2905C78.8806 26.0488 79.0015 25.7042 79.0015 25.2569V15.2476H81.4313V25.1119C81.4313 26.0185 81.2923 26.7378 81.0143 27.2697C80.7362 27.8137 80.3071 28.2066 79.7268 28.4483C79.1466 28.6901 78.385 28.811 77.4421 28.811H76.8437ZM77.569 17.1334V15.2476H81.4313V17.1334H77.569ZM79.8175 13.9964C79.3339 13.9964 78.9713 13.8694 78.7295 13.6156C78.4998 13.3496 78.385 13.0172 78.385 12.6183C78.385 12.2193 78.4998 11.893 78.7295 11.6391C78.9713 11.3852 79.3339 11.2583 79.8175 11.2583C80.3131 11.2583 80.6758 11.3852 80.9055 11.6391C81.1472 11.893 81.2681 12.2193 81.2681 12.6183C81.2681 13.0172 81.1472 13.3496 80.9055 13.6156C80.6758 13.8694 80.3131 13.9964 79.8175 13.9964ZM88.3844 25.4383C87.5382 25.4383 86.7947 25.2932 86.154 25.0031C85.5254 24.713 84.9996 24.3261 84.5765 23.8426C84.1655 23.3469 83.8512 22.7969 83.6336 22.1925C83.428 21.588 83.3253 20.9715 83.3253 20.3429V19.9984C83.3253 19.3456 83.428 18.717 83.6336 18.1126C83.8512 17.496 84.1655 16.952 84.5765 16.4806C84.9996 15.997 85.5194 15.6163 86.1359 15.3382C86.7524 15.0481 87.4657 14.903 88.2756 14.903C89.3394 14.903 90.2279 15.1388 90.9411 15.6102C91.6665 16.0696 92.2104 16.6801 92.5731 17.4416C92.9358 18.1911 93.1171 19.0011 93.1171 19.8715V20.7781H84.3951V19.2368H91.5395L90.7598 19.9984C90.7598 19.3698 90.6691 18.8318 90.4878 18.3846C90.3065 17.9373 90.0284 17.5927 89.6537 17.351C89.291 17.1092 88.8317 16.9883 88.2756 16.9883C87.7195 16.9883 87.2481 17.1152 86.8612 17.3691C86.4744 17.623 86.1782 17.9917 85.9727 18.4752C85.7793 18.9467 85.6826 19.5148 85.6826 20.1797C85.6826 20.7962 85.7793 21.3463 85.9727 21.8298C86.1661 22.3013 86.4623 22.676 86.8612 22.9541C87.2601 23.22 87.7679 23.353 88.3844 23.353C89.0009 23.353 89.5026 23.2321 89.8894 22.9903C90.2763 22.7365 90.5241 22.4282 90.6329 22.0655H92.9539C92.8088 22.7425 92.5308 23.3349 92.1198 23.8426C91.7088 24.3503 91.1829 24.7432 90.5422 25.0212C89.9136 25.2993 89.1943 25.4383 88.3844 25.4383ZM99.3101 25.4383C98.4518 25.4383 97.7084 25.2932 97.0798 25.0031C96.4633 24.713 95.9434 24.3261 95.5203 23.8426C95.1093 23.359 94.8011 22.815 94.5956 22.2106C94.3901 21.6062 94.2873 20.9897 94.2873 20.361V20.0165C94.2873 19.3516 94.3901 18.717 94.5956 18.1126C94.8132 17.496 95.1335 16.952 95.5566 16.4806C95.9797 15.997 96.4995 15.6163 97.116 15.3382C97.7447 15.0481 98.47 14.903 99.292 14.903C100.15 14.903 100.918 15.0723 101.595 15.4107C102.272 15.7371 102.81 16.1965 103.209 16.7889C103.62 17.3812 103.849 18.0702 103.898 18.856H101.45C101.389 18.3483 101.172 17.9252 100.797 17.5867C100.434 17.2482 99.9327 17.079 99.292 17.079C98.7359 17.079 98.2705 17.212 97.8958 17.4779C97.5331 17.7439 97.2611 18.1126 97.0798 18.584C96.8985 19.0434 96.8078 19.5753 96.8078 20.1797C96.8078 20.76 96.8924 21.2858 97.0616 21.7573C97.243 22.2287 97.515 22.5974 97.8776 22.8634C98.2524 23.1293 98.7299 23.2623 99.3101 23.2623C99.7453 23.2623 100.12 23.1837 100.434 23.0266C100.749 22.8694 100.997 22.6518 101.178 22.3738C101.371 22.0958 101.492 21.7815 101.54 21.4309H103.988C103.94 22.2287 103.704 22.9299 103.281 23.5343C102.87 24.1267 102.32 24.5921 101.631 24.9306C100.954 25.269 100.181 25.4383 99.3101 25.4383ZM110.004 25.2207C109.098 25.2207 108.348 25.1058 107.756 24.8762C107.176 24.6344 106.74 24.2355 106.45 23.6794C106.16 23.1112 106.015 22.3496 106.015 21.3946L106.033 12.4732H108.391L108.372 21.5578C108.372 22.0414 108.499 22.4161 108.753 22.6821C109.019 22.9359 109.394 23.0629 109.877 23.0629H111.419V25.2207H110.004ZM104.456 17.0971V15.2476H111.419V17.0971H104.456ZM113.252 25.0938V15.2476H115.246V19.4725H115.065C115.065 18.4813 115.192 17.6532 115.446 16.9883C115.7 16.3114 116.074 15.8036 116.57 15.4651C117.078 15.1146 117.706 14.9393 118.456 14.9393H118.565C119.326 14.9393 119.955 15.1146 120.45 15.4651C120.958 15.8036 121.333 16.3114 121.575 16.9883C121.829 17.6532 121.956 18.4813 121.956 19.4725H121.321C121.321 18.4813 121.448 17.6532 121.702 16.9883C121.968 16.3114 122.348 15.8036 122.844 15.4651C123.352 15.1146 123.98 14.9393 124.73 14.9393H124.839C125.6 14.9393 126.235 15.1146 126.743 15.4651C127.25 15.8036 127.631 16.3114 127.885 16.9883C128.151 17.6532 128.284 18.4813 128.284 19.4725V25.0938H125.763V19.2368C125.763 18.6203 125.606 18.1307 125.292 17.768C124.978 17.3933 124.53 17.2059 123.95 17.2059C123.37 17.2059 122.904 17.3993 122.554 17.7862C122.203 18.1609 122.028 18.6686 122.028 19.3093V25.0938H119.508V19.2368C119.508 18.6203 119.35 18.1307 119.036 17.768C118.722 17.3933 118.275 17.2059 117.694 17.2059C117.114 17.2059 116.649 17.3993 116.298 17.7862C115.947 18.1609 115.772 18.6686 115.772 19.3093V25.0938H113.252ZM136.661 25.0938V22.1743H136.243V18.9285C136.243 18.3604 136.104 17.9373 135.826 17.6592C135.548 17.3812 135.119 17.2422 134.539 17.2422C134.237 17.2422 133.874 17.2482 133.451 17.2603C133.028 17.2724 132.599 17.2905 132.164 17.3147C131.74 17.3268 131.36 17.3449 131.021 17.3691V15.2294C131.299 15.2052 131.614 15.1811 131.964 15.1569C132.315 15.1327 132.671 15.1206 133.034 15.1206C133.409 15.1085 133.759 15.1025 134.086 15.1025C135.101 15.1025 135.941 15.2355 136.606 15.5014C137.283 15.7674 137.791 16.1844 138.129 16.7526C138.48 17.3208 138.655 18.0642 138.655 18.9829V25.0938H136.661ZM133.487 25.3476C132.774 25.3476 132.145 25.2207 131.601 24.9668C131.07 24.713 130.653 24.3503 130.35 23.8788C130.06 23.4074 129.915 22.8392 129.915 22.1743C129.915 21.449 130.09 20.8567 130.441 20.3973C130.804 19.9379 131.305 19.5934 131.946 19.3637C132.599 19.134 133.36 19.0192 134.231 19.0192H136.515V20.5242H134.194C133.614 20.5242 133.167 20.6693 132.853 20.9594C132.55 21.2375 132.399 21.6001 132.399 22.0474C132.399 22.4947 132.55 22.8574 132.853 23.1354C133.167 23.4134 133.614 23.5524 134.194 23.5524C134.545 23.5524 134.865 23.492 135.156 23.3711C135.458 23.2381 135.706 23.0205 135.899 22.7183C136.104 22.404 136.219 21.9809 136.243 21.449L136.86 22.1562C136.8 22.8453 136.63 23.4255 136.352 23.897C136.086 24.3684 135.712 24.7311 135.228 24.985C134.757 25.2267 134.176 25.3476 133.487 25.3476ZM142.925 25.0938L139.842 15.2476H142.435L145.391 25.0938H142.925ZM143.668 25.0938V23.0266H146.334V25.0938H143.668ZM144.666 25.0938L147.204 15.2476H149.634L146.969 25.0938H144.666ZM155.449 25.4383C154.603 25.4383 153.859 25.2932 153.219 25.0031C152.59 24.713 152.064 24.3261 151.641 23.8426C151.23 23.3469 150.916 22.7969 150.698 22.1925C150.493 21.588 150.39 20.9715 150.39 20.3429V19.9984C150.39 19.3456 150.493 18.717 150.698 18.1126C150.916 17.496 151.23 16.952 151.641 16.4806C152.064 15.997 152.584 15.6163 153.201 15.3382C153.817 15.0481 154.53 14.903 155.34 14.903C156.404 14.903 157.293 15.1388 158.006 15.6102C158.731 16.0696 159.275 16.6801 159.638 17.4416C160.001 18.1911 160.182 19.0011 160.182 19.8715V20.7781H151.46V19.2368H158.604L157.825 19.9984C157.825 19.3698 157.734 18.8318 157.553 18.3846C157.371 17.9373 157.093 17.5927 156.718 17.351C156.356 17.1092 155.896 16.9883 155.34 16.9883C154.784 16.9883 154.313 17.1152 153.926 17.3691C153.539 17.623 153.243 17.9917 153.037 18.4752C152.844 18.9467 152.747 19.5148 152.747 20.1797C152.747 20.7962 152.844 21.3463 153.037 21.8298C153.231 22.3013 153.527 22.676 153.926 22.9541C154.325 23.22 154.833 23.353 155.449 23.353C156.066 23.353 156.567 23.2321 156.954 22.9903C157.341 22.7365 157.589 22.4282 157.698 22.0655H160.019C159.874 22.7425 159.596 23.3349 159.185 23.8426C158.774 24.3503 158.248 24.7432 157.607 25.0212C156.978 25.2993 156.259 25.4383 155.449 25.4383ZM162.005 25.0938V15.2476H163.999V19.4725H163.818C163.818 18.4692 163.951 17.6351 164.217 16.9702C164.483 16.2932 164.876 15.7855 165.396 15.447C165.928 15.1085 166.586 14.9393 167.372 14.9393H167.481C168.654 14.9393 169.542 15.3201 170.147 16.0817C170.751 16.8312 171.053 17.9554 171.053 19.4544V25.0938H168.533V19.2368C168.533 18.6324 168.357 18.1428 168.007 17.768C167.668 17.3933 167.197 17.2059 166.592 17.2059C165.976 17.2059 165.474 17.3993 165.087 17.7862C164.713 18.1609 164.525 18.6686 164.525 19.3093V25.0938H162.005Z" fill="black"/>
</svg>
